<svg width="205" height="101" viewBox="0 0 205 101" fill="none" xmlns="http://www.w3.org/2000/svg">
<path d="M5.13084 30.2653C5.14029 30.1146 5.17129 29.7141 5.22382 29.0638C5.27969 28.4228 5.35038 27.5871 5.43589 26.5566C5.52742 25.5135 5.62406 24.3369 5.7258 23.027C5.83355 21.7043 5.94604 20.3064 6.06325 18.833C6.06798 18.7576 6.06605 18.6636 6.05746 18.5508C6.05489 18.4254 6.03531 18.3114 5.9987 18.2086C5.96209 18.1059 5.89945 18.0334 5.81077 17.9914C5.7281 17.9366 5.58869 17.9442 5.39253 18.014C5.00021 18.1538 4.72153 18.4057 4.5565 18.7698C4.39747 19.1212 4.32246 19.5163 4.33145 19.9552C4.34979 20.3908 4.42718 20.8001 4.56362 21.1831C4.5969 21.2765 4.62518 21.3559 4.64848 21.4213C4.68111 21.4833 4.71375 21.5454 4.74638 21.6074C4.56891 21.6707 4.40249 21.6615 4.24714 21.58C4.0978 21.4859 3.9635 21.36 3.84422 21.2025C3.73096 21.0323 3.64771 20.8725 3.59446 20.7231C3.48464 20.4148 3.46389 20.0906 3.53219 19.7505C3.60049 19.4104 3.72548 19.0816 3.90716 18.7643C4.09817 18.4436 4.33085 18.166 4.60518 17.9314C4.88552 17.6841 5.17981 17.5056 5.48806 17.3958C5.79631 17.286 6.0848 17.2832 6.35353 17.3875C6.62827 17.4791 6.89688 17.7307 7.15937 18.1425C7.43119 18.5509 7.71852 19.1801 8.02135 20.0302C8.22768 20.6093 8.42396 21.2341 8.6102 21.9046C8.80579 22.5718 8.99337 23.2313 9.17296 23.8831C9.35255 24.5349 9.52618 25.1257 9.69386 25.6554C9.64031 25.0324 9.63417 24.3504 9.67544 23.6093C9.72605 22.865 9.80167 22.117 9.90231 21.3653C10.009 20.601 10.1259 19.8804 10.2532 19.2035C10.3804 18.5265 10.5016 17.936 10.6168 17.4318C10.7319 16.9276 10.8169 16.5605 10.8718 16.3304C10.936 16.097 10.9981 15.917 11.0583 15.7903C11.1151 15.6542 11.2182 15.5596 11.3677 15.5064C11.4984 15.4598 11.6595 15.4392 11.851 15.4447C11.8455 15.6361 11.8419 15.9216 11.8403 16.3012C11.8447 16.668 11.871 17.1113 11.9193 17.6309C11.9728 18.254 12.0547 18.9564 12.1648 19.7382C12.2716 20.5107 12.3927 21.2939 12.5281 22.0878C12.6729 22.8783 12.8261 23.6185 12.9877 24.3083C13.1459 24.9888 13.3049 25.5532 13.4646 26.0016C13.5378 26.2071 13.6037 26.3625 13.6623 26.468C13.7209 26.5734 13.7792 26.6632 13.8372 26.7373C13.9079 26.8174 13.9901 26.9301 14.0841 27.0756C13.7665 27.1888 13.5053 27.2239 13.3006 27.1811C13.0958 27.1382 12.9238 27.01 12.7846 26.7965C12.6487 26.5923 12.5125 26.2987 12.3761 25.9157C11.9801 24.8041 11.6959 23.5632 11.5235 22.193C11.3572 20.8102 11.2116 19.3673 11.0867 17.8644C10.9389 18.3065 10.8104 18.847 10.7012 19.486C10.598 20.1122 10.5067 20.7868 10.4275 21.5098C10.3542 22.2201 10.292 22.9318 10.2407 23.6448C10.1955 24.3451 10.1633 24.9935 10.1441 25.5898C10.125 26.1861 10.121 26.677 10.132 27.0625C10.0826 27.1012 10.0502 27.1285 10.0349 27.1445C10.0195 27.1605 9.98849 27.1768 9.94179 27.1935C9.68958 27.2833 9.4682 27.1938 9.27764 26.9248C9.09643 26.6525 8.90931 26.2455 8.7163 25.7037C8.57986 25.3207 8.4278 24.8644 8.26012 24.3346C8.09846 23.7922 7.93181 23.2358 7.76016 22.6654C7.58851 22.0949 7.42052 21.5495 7.25617 21.0291C7.09783 20.496 6.95211 20.0427 6.819 19.669C6.75244 19.4822 6.69286 19.3298 6.64026 19.2116C6.597 19.0902 6.55406 18.9845 6.51144 18.8944C6.38314 20.898 6.28642 22.6062 6.22129 24.0189C6.15282 25.4222 6.08223 26.5685 6.00949 27.4575C5.9461 28.3433 5.84686 29.0102 5.71178 29.4584C5.57669 29.9065 5.38304 30.1755 5.13084 30.2653ZM16.1862 25.6951C15.8966 25.7983 15.6188 25.7867 15.3528 25.6605C15.0807 25.5469 14.8748 25.2939 14.7351 24.9016C14.6153 24.5653 14.5619 24.1791 14.5749 23.7428C14.5846 23.2973 14.6536 22.8411 14.7821 22.3743C14.9072 21.8981 15.0783 21.4477 15.2954 21.023C15.5185 20.5856 15.7789 20.2086 16.0767 19.892C16.3838 19.572 16.7194 19.3472 17.0837 19.2174C17.448 19.0876 17.7866 19.0775 18.0993 19.1872C18.4087 19.2875 18.62 19.4964 18.7331 19.814C18.8163 20.0475 18.8075 20.2296 18.7067 20.3603C18.6152 20.4876 18.4667 20.5879 18.2612 20.6611C18.2533 20.5797 18.239 20.4953 18.2184 20.4079C18.2038 20.3078 18.1832 20.2204 18.1566 20.1457C18.08 19.9309 17.9638 19.767 17.8078 19.6542C17.6485 19.532 17.4427 19.5158 17.1905 19.6057C16.9289 19.6989 16.696 19.8871 16.4917 20.1704C16.284 20.4444 16.109 20.7805 15.9666 21.1786C15.8209 21.5673 15.7132 21.9741 15.6435 22.399C15.5738 22.8238 15.5445 23.229 15.5555 23.6145C15.5665 24.0001 15.6203 24.3283 15.7168 24.5992C15.8466 24.9635 16.0376 25.1007 16.2898 25.0108C16.5046 24.9343 16.7032 24.753 16.8855 24.467C17.0645 24.1717 17.2299 23.8233 17.3816 23.4219C17.5394 23.0078 17.6798 22.5893 17.8028 22.1665C17.9259 21.7437 18.0309 21.3589 18.1179 21.0121C18.1353 20.9428 18.1487 20.9064 18.158 20.9031C18.2174 20.8925 18.2941 20.8862 18.3881 20.8843C18.4915 20.879 18.5842 20.8881 18.6663 20.9115C18.7483 20.9349 18.8026 20.984 18.8292 21.0587C18.8592 21.1428 18.8587 21.2745 18.8279 21.4539C18.7938 21.624 18.7586 21.8207 18.7224 22.0442C18.6862 22.2676 18.661 22.4924 18.6468 22.7185C18.6293 22.9352 18.6505 23.1277 18.7104 23.2958C18.7603 23.4359 18.8476 23.5627 18.9723 23.6762C19.0936 23.7804 19.2383 23.8025 19.4064 23.7426C19.6586 23.6527 19.9254 23.3525 20.2066 22.8417C20.4845 22.3217 20.7021 21.6178 20.8596 20.7301L21.0496 20.8203C21.0331 21.3946 20.939 21.9282 20.7672 22.421C20.5954 22.9138 20.3703 23.3308 20.0919 23.6721C19.8228 24.0101 19.5201 24.239 19.1838 24.3588C18.8382 24.4819 18.5447 24.4706 18.3034 24.325C18.0714 24.1761 17.9121 23.9802 17.8256 23.7374C17.8056 23.6813 17.7887 23.6189 17.7747 23.5502C17.7574 23.4722 17.7402 23.3941 17.7229 23.3161C17.5142 24.0009 17.29 24.5387 17.0503 24.9294C16.8198 25.3168 16.5318 25.572 16.1862 25.6951ZM22.3581 23.2279C22.1993 23.2845 22.0208 23.3007 21.8227 23.2765C21.6373 23.2583 21.4616 23.1788 21.2956 23.038C21.1203 22.9004 20.9844 22.6962 20.8879 22.4253C20.7781 22.1171 20.7297 21.7448 20.7427 21.3086C20.7557 20.8724 20.8218 20.4225 20.9409 19.9591C21.0566 19.4862 21.2214 19.0328 21.4352 18.5987C21.6456 18.1553 21.8951 17.777 22.1835 17.4637C22.4685 17.1411 22.7839 16.9182 23.1295 16.7951C23.3256 16.7252 23.4884 16.7093 23.6178 16.7474C23.7532 16.7729 23.8475 16.8603 23.9007 17.0098C23.914 17.0472 23.921 17.0815 23.9217 17.1129C23.9316 17.1409 23.9386 17.1752 23.9426 17.2159C23.8693 17.1579 23.7809 17.1314 23.6775 17.1367C23.5801 17.1293 23.4661 17.1489 23.3353 17.1955C23.0364 17.3019 22.7754 17.5002 22.5524 17.7902C22.3354 18.0675 22.1587 18.3988 22.0224 18.7843C21.892 19.157 21.798 19.5432 21.7403 19.9427C21.6826 20.3422 21.659 20.719 21.6694 21.0732C21.6858 21.4147 21.7323 21.6929 21.8088 21.9078C21.882 22.1133 21.987 22.2601 22.1236 22.3482C22.2603 22.4364 22.4034 22.4539 22.5528 22.4006C22.805 22.3108 23.052 22.0438 23.2938 21.5998C23.545 21.1524 23.7542 20.5726 23.9215 19.8603C24.0888 19.1481 24.1838 18.3511 24.2065 17.4693C24.219 16.8543 24.2329 16.2283 24.248 15.5913C24.2725 14.951 24.3054 14.334 24.3465 13.7404C24.3843 13.1375 24.4345 12.5985 24.4969 12.1237C24.5653 11.6361 24.6513 11.2423 24.7549 10.9422C24.8646 10.6295 24.9941 10.4465 25.1436 10.3933C25.2183 10.3666 25.2953 10.376 25.3747 10.4214C25.4507 10.4575 25.5053 10.5223 25.5386 10.6157C25.5918 10.7651 25.6039 11.0503 25.5749 11.4712C25.5519 11.8794 25.5042 12.3806 25.4317 12.9748C25.3652 13.5564 25.3013 14.1897 25.2401 14.8747C25.1789 15.5597 25.1303 16.2507 25.0944 16.9477C25.0679 17.6414 25.0767 18.3014 25.1209 18.9278C25.1711 19.5415 25.2794 20.0818 25.4458 20.5489C25.539 20.8104 25.6229 21.0016 25.6975 21.1224C25.7721 21.2432 25.8888 21.2753 26.0476 21.2187C26.2437 21.1488 26.4427 20.9832 26.6443 20.7219C26.8459 20.4606 27.0226 20.1292 27.1744 19.7278C27.3261 19.3264 27.4235 18.8759 27.4666 18.3763L27.6796 18.4425C27.6719 18.9821 27.5821 19.4983 27.4103 19.9911C27.2351 20.4746 27.0084 20.8869 26.7299 21.2282C26.4642 21.5756 26.1725 21.8058 25.8549 21.9189C25.5093 22.0421 25.2249 22.0118 25.0016 21.8282C24.7909 21.6506 24.6423 21.4404 24.5558 21.1975C24.4992 21.0387 24.4477 20.8202 24.4012 20.5421C24.3548 20.2639 24.317 19.951 24.2879 19.6035C24.1654 20.205 24.0075 20.7665 23.8144 21.288C23.6178 21.8001 23.3961 22.2265 23.149 22.5672C22.9113 22.9045 22.6476 23.1247 22.3581 23.2279ZM29.2048 20.7887C28.8872 20.9018 28.5804 20.8532 28.2844 20.6429C27.9944 20.4199 27.7829 20.1215 27.6498 19.7479C27.5533 19.477 27.4838 19.1491 27.4414 18.7642C27.4084 18.376 27.3957 17.9858 27.4033 17.5936C27.411 17.2014 27.4449 16.8682 27.5052 16.5941C27.5654 16.32 27.6469 16.1647 27.7496 16.128C27.7964 16.1114 27.8857 16.1111 28.0178 16.1273C28.1465 16.134 28.2632 16.1661 28.3679 16.2236C28.3217 16.419 28.2821 16.7068 28.2492 17.0869C28.2162 17.4671 28.2102 17.864 28.2312 18.2776C28.2523 18.6911 28.3193 19.0567 28.4325 19.3743C28.4591 19.449 28.51 19.5625 28.5853 19.7146C28.6572 19.8574 28.7522 19.9762 28.8702 20.071C28.9882 20.1658 29.1219 20.1866 29.2713 20.1334C29.4488 20.0701 29.5993 19.9165 29.7229 19.6725C29.8432 19.4191 29.9452 19.1143 30.0288 18.7582C30.1218 18.3988 30.1971 18.0193 30.2548 17.6198C30.3125 17.2203 30.3611 16.8398 30.4008 16.4783C30.4498 16.1135 30.489 15.81 30.5186 15.5679C30.5779 15.5573 30.664 15.5477 30.7767 15.5391C30.8988 15.5272 31.0102 15.5296 31.1109 15.5464C31.2209 15.5598 31.2909 15.6085 31.3209 15.6926C31.3342 15.73 31.3324 15.8727 31.3155 16.1208C31.2954 16.3596 31.2748 16.6564 31.2538 17.0112C31.2389 17.3534 31.2396 17.6953 31.256 18.0368C31.2724 18.3783 31.3222 18.6658 31.4054 18.8994C31.4653 19.0675 31.5463 19.1913 31.6483 19.2708C31.7596 19.3469 31.8993 19.355 32.0675 19.2951C32.2636 19.2252 32.4702 19.0516 32.6872 18.7743C32.9042 18.497 33.0976 18.1386 33.2674 17.6992C33.4338 17.2504 33.5442 16.7479 33.5987 16.1916L33.8258 16.2529C33.8093 16.8271 33.7122 17.367 33.5344 17.8725C33.3532 18.3686 33.1234 18.7873 32.845 19.1286C32.5666 19.4699 32.2593 19.7005 31.923 19.8203C31.6801 19.9068 31.4673 19.93 31.2846 19.8898C31.1112 19.8463 30.9635 19.7568 30.8416 19.6213C30.7289 19.4825 30.6394 19.3197 30.5728 19.1328C30.5329 19.0208 30.5023 18.9053 30.481 18.7866C30.4564 18.6585 30.4365 18.5288 30.4213 18.3973C30.363 18.7655 30.284 19.1199 30.1843 19.4607C30.0814 19.7921 29.9507 20.0755 29.7925 20.3109C29.6342 20.5462 29.4383 20.7055 29.2048 20.7887ZM36.7016 18.0547C36.384 18.1678 36.1018 18.1736 35.8551 18.072C35.6177 17.9671 35.4508 17.7792 35.3543 17.5083C35.2544 17.2281 35.215 16.9106 35.236 16.5557C35.2569 16.2009 35.2749 15.8524 35.2898 15.5102C35.3108 15.1554 35.278 14.8565 35.1915 14.6137C35.085 14.3148 34.918 14.1269 34.6906 14.05C34.4692 13.9604 34.2482 13.8865 34.0274 13.8283C34.0089 14.456 33.9711 15.0589 33.914 15.6372C33.8568 16.2155 33.7985 16.6573 33.7389 16.9628L33.5279 16.7695C33.5721 16.4801 33.6138 16.0652 33.6529 15.5249C33.7014 14.9814 33.7219 14.3741 33.7144 13.703C33.5877 13.6429 33.5011 13.5474 33.4545 13.4167C33.3546 13.1364 33.3525 12.8793 33.4481 12.6453C33.5436 12.4112 33.6288 12.2809 33.7035 12.2543C33.8063 12.2176 33.8789 12.2444 33.9216 12.3345C33.9702 12.4119 34.0028 12.4739 34.0195 12.5206C34.0361 12.5673 34.0414 12.6707 34.0352 12.8308C34.0351 12.9782 34.04 13.0659 34.05 13.094C34.0966 13.2247 34.2099 13.3212 34.39 13.3834C34.576 13.4329 34.7874 13.4944 35.0242 13.568C35.2576 13.6322 35.4793 13.7374 35.6893 13.8837C35.9053 14.0172 36.0665 14.2335 36.173 14.5324C36.2729 14.8126 36.3137 15.1191 36.2954 15.452C36.2865 15.7815 36.2679 16.0986 36.2396 16.4034C36.2207 16.7049 36.2462 16.9537 36.3161 17.1499C36.376 17.318 36.4579 17.4151 36.562 17.4412C36.666 17.4673 36.7741 17.4604 36.8862 17.4205C37.1103 17.3406 37.3142 17.189 37.4978 16.9657C37.6908 16.7391 37.8611 16.4784 38.0087 16.1837C38.1564 15.889 38.2773 15.5933 38.3716 15.2965C38.4626 14.9904 38.5135 14.7196 38.5243 14.4842L38.7564 14.5594C38.7187 15.015 38.6139 15.4891 38.4421 15.9819C38.267 16.4654 38.0312 16.8968 37.7347 17.2761C37.4476 17.652 37.1032 17.9116 36.7016 18.0547ZM39.9261 17.2375C39.6365 17.3406 39.3587 17.3291 39.0927 17.2028C38.8206 17.0892 38.6147 16.8362 38.475 16.4439C38.3552 16.1076 38.3018 15.7214 38.3148 15.2852C38.3245 14.8396 38.3935 14.3834 38.522 13.9166C38.6471 13.4405 38.8182 12.99 39.0353 12.5653C39.2584 12.1279 39.5188 11.7509 39.8166 11.4343C40.1237 11.1144 40.4593 10.8895 40.8236 10.7597C41.1879 10.6299 41.5265 10.6199 41.8392 10.7295C42.1486 10.8298 42.3599 11.0387 42.473 11.3563C42.5562 11.5899 42.5474 11.7719 42.4466 11.9026C42.3551 12.0299 42.2066 12.1302 42.0011 12.2034C41.9932 12.122 41.9789 12.0376 41.9583 11.9502C41.9437 11.8502 41.9231 11.7628 41.8965 11.6881C41.8199 11.4732 41.7037 11.3094 41.5477 11.1965C41.3884 11.0743 41.1826 11.0582 40.9304 11.148C40.6688 11.2412 40.4359 11.4294 40.2316 11.7128C40.0239 11.9868 39.8489 12.3228 39.7065 12.7209C39.5608 13.1097 39.4531 13.5165 39.3834 13.9413C39.3137 14.3661 39.2844 14.7713 39.2954 15.1569C39.3064 15.5424 39.3602 15.8706 39.4567 16.1415C39.5865 16.5058 39.7775 16.643 40.0297 16.5532C40.2445 16.4766 40.4431 16.2954 40.6254 16.0094C40.8044 15.714 40.9698 15.3656 41.1215 14.9642C41.2793 14.5501 41.4197 14.1316 41.5427 13.7089C41.6658 13.2861 41.7708 12.9013 41.8578 12.5545C41.8752 12.4851 41.8886 12.4488 41.8979 12.4455C41.9573 12.4348 42.034 12.4286 42.128 12.4266C42.2314 12.4214 42.3241 12.4305 42.4062 12.4539C42.4882 12.4773 42.5425 12.5263 42.5691 12.6011C42.5991 12.6851 42.5986 12.8169 42.5678 12.9963C42.5337 13.1663 42.4985 13.3631 42.4623 13.5865C42.4261 13.8099 42.4009 14.0347 42.3867 14.2608C42.3692 14.4776 42.3904 14.67 42.4503 14.8382C42.5002 14.9783 42.5875 15.1051 42.7122 15.2186C42.8335 15.3227 42.9782 15.3448 43.1463 15.2849C43.3985 15.1951 43.6653 14.8948 43.9465 14.3841C44.2244 13.864 44.442 13.1602 44.5995 12.2725L44.7895 12.3627C44.773 12.937 44.6789 13.4705 44.5071 13.9633C44.3353 14.4561 44.1102 14.8731 43.8318 15.2144C43.5627 15.5524 43.26 15.7813 42.9237 15.9011C42.5781 16.0242 42.2846 16.013 42.0433 15.8674C41.8113 15.7185 41.652 15.5226 41.5655 15.2797C41.5455 15.2237 41.5286 15.1613 41.5146 15.0926C41.4973 15.0145 41.4801 14.9365 41.4628 14.8584C41.2541 15.5433 41.0299 16.081 40.7902 16.4717C40.5597 16.8591 40.2717 17.1143 39.9261 17.2375ZM46.2601 14.6493C45.8959 14.7791 45.5834 14.7588 45.3227 14.5885C45.0654 14.4276 44.8784 14.1836 44.762 13.8567C44.6854 13.6419 44.6263 13.3577 44.5845 13.0041C44.5521 12.6472 44.5381 12.268 44.5424 11.8665C44.5434 11.4556 44.5714 11.0614 44.6264 10.6839C44.6907 10.3031 44.786 9.97967 44.9123 9.71363C45.0352 9.43824 45.1901 9.26727 45.3769 9.20072C45.461 9.17077 45.541 9.17383 45.617 9.20991C45.6991 9.23332 45.7584 9.2964 45.795 9.39915C45.8349 9.51124 45.8251 9.72001 45.7655 10.0255C45.7152 10.3276 45.6503 10.677 45.5706 11.0739C45.4909 11.4707 45.4412 11.8779 45.4215 12.2954C45.4079 12.7003 45.4593 13.0662 45.5758 13.3931C45.6956 13.7294 45.8315 13.9336 45.9835 14.0057C46.1355 14.0779 46.3283 14.0724 46.5618 13.9892C46.8794 13.876 47.1591 13.5974 47.4009 13.1534C47.6521 12.706 47.837 12.0138 47.9558 11.0767L48.1319 11.1719C48.1472 12.0717 47.9745 12.828 47.6138 13.4407C47.2625 14.0501 46.8113 14.453 46.2601 14.6493ZM45.6553 7.6331C45.5058 7.68635 45.3571 7.69724 45.209 7.66577C45.0703 7.63098 44.9727 7.53418 44.9161 7.37539C44.8462 7.17923 44.8984 6.97116 45.0727 6.75118C45.2529 6.51853 45.4552 6.36227 45.6794 6.2824C45.8195 6.23249 45.9432 6.22524 46.0506 6.26068C46.1579 6.29612 46.2399 6.39323 46.2965 6.55203C46.3597 6.7295 46.3232 6.93725 46.1869 7.17527C46.0567 7.40062 45.8795 7.55323 45.6553 7.6331Z" fill="white"/>
<path d="M191.55 54.8334H186.352L192.07 21.5625H198.828L204.547 54.8334H198.828L197.788 47.5554H192.59L191.55 54.8334Z" fill="white"/>
<path d="M182.713 33.0005H177.514V28.3217C177.514 27.8008 176.994 26.2391 174.915 26.2391C172.316 26.2391 171.796 27.2788 171.796 28.8384V47.5533C172.316 49.1129 173.355 50.1526 175.435 50.1526C177.098 50.1526 177.861 48.4197 178.034 47.5533V40.7951H174.915V35.5966H182.713V49.6327C181.881 53.3757 178.207 55.0046 176.475 55.3512C169.82 56.1829 167.464 50.4992 167.117 47.5533V28.3217C167.117 25.7224 170.236 19.4842 176.475 21.0437C181.465 22.2914 182.713 26.4156 182.713 28.3217V33.0005Z" fill="white"/>
<path d="M99.5352 47.031V28.836C99.5352 26.2386 100.575 21.4281 106.813 21.0382C113.467 20.6223 115.131 26.0635 115.131 28.836V47.031C115.131 50.1502 113.571 55.3488 106.813 55.3488C100.932 55.3488 99.5352 49.457 99.5352 47.031Z" fill="white"/>
<path d="M119.289 47.0623V28.8673C119.289 26.2698 120.329 21.4593 126.567 21.0694C133.221 20.6535 134.885 26.0947 134.885 28.8673V47.0623C134.885 50.1814 133.325 55.38 126.567 55.38C120.686 55.38 119.289 49.4883 119.289 47.0623Z" fill="white"/>
<path d="M6.48047 96.4269H12.1989V39.2425L51.7081 26.2461H61.0655V57.9574H67.8237V26.2461H77.701V20.0078H51.7081L6.48047 34.5638V96.4269Z" fill="white"/>
<path d="M84.979 21.5674H80.3002V54.3184H84.979V40.2823H91.2172V54.3184H95.896V21.5674H91.2172V35.6035H84.979V21.5674Z" fill="white"/>
<path d="M116.17 91.7439H113.051C113.051 89.1446 110.452 85.5056 106.293 86.0254C102.966 86.4413 101.441 90.3576 101.094 92.2637H97.975C97.6284 89.4911 95.3757 83.842 89.1374 83.4261C82.8991 83.0103 80.2998 89.1446 79.78 92.2637H54.8268C54.4109 89.3525 51.881 85.8521 50.668 84.4659H72.502V57.9531H86.0183C91.8407 58.7849 95.7223 63.4983 96.9353 65.751C120.329 66.7907 116.69 81.8666 116.17 91.7439Z" fill="white"/>
<circle cx="89.1377" cy="92.2666" r="7.79786" fill="white"/>
<circle cx="44.9502" cy="92.2666" r="7.79786" fill="white"/>
<circle cx="107.333" cy="92.2647" r="4.67872" fill="white"/>
<rect x="45.4707" y="77.1875" width="12.4766" height="5.19858" fill="white"/>
<rect x="45.4707" y="68.8672" width="12.4766" height="5.19858" fill="white"/>
<rect x="28.834" y="68.8672" width="12.4766" height="5.19858" fill="white"/>
<rect x="28.834" y="60.5547" width="12.4766" height="5.19858" fill="white"/>
<rect x="28.834" y="77.1875" width="12.4766" height="5.19858" fill="white"/>
<path d="M38.7113 85.5078H28.834V92.7858H36.112C35.6961 89.4587 37.6716 86.5475 38.7113 85.5078Z" fill="white"/>
<path d="M104.215 46.5166V28.8415C104.215 27.975 104.839 26.2422 107.334 26.2422C109.829 26.2422 110.453 27.975 110.453 28.8415V46.5166C110.453 48.0762 109.413 50.1556 107.334 50.1556C105.255 50.1556 104.215 48.5961 104.215 46.5166Z" fill="#002856"/>
<path d="M123.969 46.5401V28.8649C123.969 27.9985 124.593 26.2656 127.088 26.2656C129.583 26.2656 130.207 27.9985 130.207 28.8649V46.5401C130.207 48.0996 129.167 50.1791 127.088 50.1791C125.008 50.1791 123.969 48.6195 123.969 46.5401Z" fill="#002856"/>
<path d="M138.004 54.8334V21.5625H148.921C157.239 24.1618 154.639 38.7178 151.52 40.2774L155.159 54.8334H149.441L146.322 42.3568H143.202V54.8334H138.004Z" fill="white"/>
<path d="M143.203 37.1839V26.7867C148.194 25.955 149.441 28.346 149.441 30.4257V34.5846C148.922 38.2003 144.936 37.5305 143.203 37.1839Z" fill="#002856"/>
<rect x="158.799" y="21.0469" width="5.19858" height="33.2709" fill="white"/>
<path d="M197.788 42.3565H193.629L195.708 28.3203L197.788 42.3565Z" fill="#002856"/>
<path d="M120.269 74.5625V64.564H124.169C125.045 64.564 125.792 64.7021 126.411 64.9782C127.03 65.2544 127.506 65.6543 127.84 66.1781C128.173 66.7018 128.339 67.3255 128.339 68.0492C128.339 68.7729 128.173 69.3966 127.84 69.9204C127.506 70.4346 127.03 70.8345 126.411 71.1202C125.792 71.3963 125.045 71.5344 124.169 71.5344H121.055L121.698 70.8631V74.5625H120.269ZM121.698 71.0059L121.055 70.2917H124.126C125.04 70.2917 125.73 70.0965 126.197 69.7061C126.673 69.3157 126.911 68.7634 126.911 68.0492C126.911 67.335 126.673 66.7827 126.197 66.3923C125.73 66.0019 125.04 65.8067 124.126 65.8067H121.055L121.698 65.0925V71.0059ZM130.421 74.5625L134.949 64.564H136.363L140.906 74.5625H139.406L135.364 65.3639H135.935L131.893 74.5625H130.421ZM132.35 72.0629L132.735 70.9202H138.363L138.777 72.0629H132.35ZM148.728 74.6768C147.966 74.6768 147.262 74.553 146.614 74.3054C145.976 74.0483 145.419 73.6912 144.943 73.2341C144.476 72.7675 144.11 72.2248 143.843 71.6058C143.576 70.9869 143.443 70.306 143.443 69.5633C143.443 68.8205 143.576 68.1397 143.843 67.5207C144.11 66.9018 144.481 66.3638 144.957 65.9067C145.433 65.4401 145.99 65.083 146.628 64.8354C147.276 64.5783 147.981 64.4498 148.742 64.4498C149.514 64.4498 150.223 64.5831 150.871 64.8497C151.528 65.1068 152.085 65.4925 152.542 66.0067L151.613 66.9065C151.232 66.5066 150.804 66.2114 150.328 66.0209C149.852 65.821 149.342 65.721 148.799 65.721C148.238 65.721 147.714 65.8162 147.228 66.0067C146.752 66.1971 146.338 66.4637 145.986 66.8065C145.633 67.1493 145.357 67.5588 145.157 68.0349C144.967 68.5015 144.871 69.011 144.871 69.5633C144.871 70.1156 144.967 70.6298 145.157 71.1059C145.357 71.5725 145.633 71.9772 145.986 72.32C146.338 72.6628 146.752 72.9294 147.228 73.1199C147.714 73.3103 148.238 73.4055 148.799 73.4055C149.342 73.4055 149.852 73.3103 150.328 73.1199C150.804 72.9199 151.232 72.6152 151.613 72.2057L152.542 73.1056C152.085 73.6198 151.528 74.0102 150.871 74.2768C150.223 74.5435 149.509 74.6768 148.728 74.6768ZM157.836 72.1486L157.765 70.406L163.435 64.564H165.063L160.678 69.1919L159.879 70.0775L157.836 72.1486ZM156.579 74.5625V64.564H158.007V74.5625H156.579ZM163.664 74.5625L159.564 69.7918L160.521 68.7348L165.335 74.5625H163.664ZM170.145 68.8777H175.287V70.0918H170.145V68.8777ZM170.273 73.3198H176.101V74.5625H168.845V64.564H175.901V65.8067H170.273V73.3198ZM180.414 74.5625V64.564H184.313C185.189 64.564 185.937 64.7021 186.556 64.9782C187.174 65.2544 187.651 65.6543 187.984 66.1781C188.317 66.7018 188.484 67.3255 188.484 68.0492C188.484 68.7729 188.317 69.3966 187.984 69.9204C187.651 70.4346 187.174 70.8297 186.556 71.1059C185.937 71.382 185.189 71.5201 184.313 71.5201H181.199L181.842 70.8631V74.5625H180.414ZM187.098 74.5625L184.556 70.9345H186.084L188.655 74.5625H187.098ZM181.842 71.0059L181.199 70.306H184.27C185.184 70.306 185.875 70.1108 186.341 69.7204C186.817 69.3204 187.055 68.7634 187.055 68.0492C187.055 67.335 186.817 66.7827 186.341 66.3923C185.875 66.0019 185.184 65.8067 184.27 65.8067H181.199L181.842 65.0925V71.0059ZM195.705 74.6768C194.943 74.6768 194.215 74.5625 193.52 74.334C192.824 74.0959 192.277 73.7912 191.877 73.4198L192.406 72.3057C192.786 72.639 193.272 72.9151 193.862 73.1341C194.453 73.3532 195.067 73.4627 195.705 73.4627C196.286 73.4627 196.757 73.396 197.119 73.2627C197.481 73.1294 197.748 72.9485 197.919 72.7199C198.09 72.4819 198.176 72.2152 198.176 71.92C198.176 71.5772 198.062 71.3011 197.833 71.0916C197.614 70.8821 197.324 70.7155 196.962 70.5917C196.61 70.4584 196.219 70.3441 195.791 70.2489C195.362 70.1536 194.929 70.0441 194.491 69.9204C194.062 69.787 193.667 69.6204 193.305 69.4204C192.953 69.2205 192.667 68.9538 192.448 68.6205C192.229 68.2777 192.12 67.8397 192.12 67.3065C192.12 66.7923 192.253 66.3209 192.52 65.8924C192.796 65.4544 193.215 65.1068 193.777 64.8497C194.348 64.5831 195.072 64.4498 195.948 64.4498C196.529 64.4498 197.105 64.5259 197.676 64.6783C198.247 64.8307 198.743 65.0497 199.162 65.3353L198.69 66.478C198.262 66.1923 197.809 65.9876 197.333 65.8638C196.857 65.7305 196.395 65.6639 195.948 65.6639C195.386 65.6639 194.924 65.7353 194.562 65.8781C194.2 66.0209 193.934 66.2114 193.762 66.4495C193.601 66.6875 193.52 66.9541 193.52 67.2493C193.52 67.6017 193.629 67.8826 193.848 68.0921C194.077 68.3016 194.367 68.4682 194.719 68.592C195.081 68.7158 195.476 68.83 195.905 68.9348C196.333 69.03 196.762 69.1395 197.19 69.2633C197.629 69.3871 198.024 69.549 198.376 69.7489C198.738 69.9489 199.028 70.2155 199.247 70.5488C199.466 70.8821 199.576 71.3106 199.576 71.8343C199.576 72.339 199.438 72.8104 199.162 73.2484C198.885 73.6769 198.457 74.0245 197.876 74.2911C197.305 74.5482 196.581 74.6768 195.705 74.6768ZM122.912 91.6768C122.236 91.6768 121.636 91.5673 121.112 91.3482C120.588 91.1292 120.174 90.8245 119.869 90.4341C119.565 90.0437 119.412 89.5914 119.412 89.0772C119.412 88.6296 119.512 88.2202 119.712 87.8488C119.912 87.4774 120.231 87.1203 120.669 86.7775C121.107 86.4252 121.683 86.0633 122.398 85.692C122.978 85.3873 123.431 85.1206 123.754 84.8921C124.088 84.6636 124.321 84.4493 124.454 84.2493C124.597 84.0398 124.669 83.8161 124.669 83.578C124.669 83.2542 124.554 82.9924 124.326 82.7924C124.097 82.5829 123.769 82.4782 123.34 82.4782C122.893 82.4782 122.54 82.5924 122.283 82.821C122.036 83.04 121.912 83.3304 121.912 83.6923C121.912 83.8732 121.94 84.0494 121.998 84.2208C122.064 84.3826 122.179 84.5683 122.34 84.7778C122.512 84.9778 122.755 85.2349 123.069 85.5491L128.354 90.8055L127.582 91.7196L121.969 86.1348C121.636 85.8015 121.374 85.5063 121.183 85.2492C120.993 84.9826 120.855 84.7254 120.769 84.4779C120.684 84.2303 120.641 83.9779 120.641 83.7208C120.641 83.2733 120.75 82.8829 120.969 82.5496C121.198 82.2068 121.512 81.9449 121.912 81.764C122.321 81.5735 122.797 81.4783 123.34 81.4783C123.845 81.4783 124.283 81.564 124.654 81.7354C125.026 81.8973 125.311 82.1354 125.511 82.4496C125.721 82.7543 125.826 83.1257 125.826 83.5637C125.826 83.9446 125.73 84.2969 125.54 84.6207C125.359 84.9445 125.064 85.2587 124.654 85.5634C124.245 85.8681 123.693 86.1967 122.997 86.549C122.426 86.8442 121.979 87.1203 121.655 87.3774C121.331 87.625 121.098 87.8726 120.955 88.1202C120.822 88.3677 120.755 88.6391 120.755 88.9343C120.755 89.2486 120.845 89.5295 121.026 89.7771C121.217 90.0151 121.479 90.2008 121.812 90.3341C122.155 90.4674 122.55 90.5341 122.997 90.5341C123.635 90.5341 124.212 90.396 124.726 90.1199C125.24 89.8437 125.668 89.4295 126.011 88.8772C126.364 88.3249 126.621 87.6393 126.783 86.8204L127.882 87.1775C127.692 88.1392 127.363 88.9534 126.897 89.6199C126.44 90.2865 125.873 90.796 125.197 91.1483C124.521 91.5006 123.759 91.6768 122.912 91.6768ZM132.061 91.5625V81.564H133.232L137.717 89.12H137.089L141.517 81.564H142.688L142.702 91.5625H141.331L141.317 83.7208H141.645L137.703 90.3484H137.046L133.075 83.7208H133.432V91.5625H132.061ZM152.216 91.6768C151.454 91.6768 150.745 91.5482 150.088 91.2911C149.44 91.034 148.879 90.6769 148.403 90.2198C147.926 89.7533 147.555 89.2105 147.288 88.5915C147.022 87.9726 146.888 87.2965 146.888 86.5633C146.888 85.83 147.022 85.154 147.288 84.535C147.555 83.916 147.926 83.378 148.403 82.921C148.879 82.4544 149.44 82.0925 150.088 81.8354C150.735 81.5783 151.445 81.4498 152.216 81.4498C152.978 81.4498 153.678 81.5783 154.316 81.8354C154.963 82.083 155.525 82.4401 156.001 82.9067C156.487 83.3638 156.858 83.9018 157.115 84.5207C157.382 85.1397 157.515 85.8205 157.515 86.5633C157.515 87.306 157.382 87.9869 157.115 88.6058C156.858 89.2248 156.487 89.7675 156.001 90.2341C155.525 90.6912 154.963 91.0483 154.316 91.3054C153.678 91.553 152.978 91.6768 152.216 91.6768ZM152.216 90.4055C152.769 90.4055 153.278 90.3103 153.745 90.1199C154.221 89.9294 154.63 89.6628 154.973 89.32C155.325 88.9677 155.597 88.5582 155.787 88.0916C155.987 87.625 156.087 87.1156 156.087 86.5633C156.087 86.011 155.987 85.5015 155.787 85.0349C155.597 84.5683 155.325 84.1636 154.973 83.8208C154.63 83.4685 154.221 83.1971 153.745 83.0067C153.278 82.8162 152.769 82.721 152.216 82.721C151.654 82.721 151.135 82.8162 150.659 83.0067C150.193 83.1971 149.783 83.4685 149.431 83.8208C149.079 84.1636 148.802 84.5683 148.602 85.0349C148.412 85.5015 148.317 86.011 148.317 86.5633C148.317 87.1156 148.412 87.625 148.602 88.0916C148.802 88.5582 149.079 88.9677 149.431 89.32C149.783 89.6628 150.193 89.9294 150.659 90.1199C151.135 90.3103 151.654 90.4055 152.216 90.4055ZM164.277 91.5625L159.877 81.564H161.42L165.462 90.7912H164.577L168.647 81.564H170.076L165.691 91.5625H164.277ZM174.65 85.8777H179.792V87.0918H174.65V85.8777ZM174.779 90.3198H180.607V91.5625H173.35V81.564H180.407V82.8067H174.779V90.3198ZM184.919 91.5625V81.564H188.818C189.694 81.564 190.442 81.7021 191.061 81.9782C191.68 82.2544 192.156 82.6543 192.489 83.1781C192.823 83.7018 192.989 84.3255 192.989 85.0492C192.989 85.7729 192.823 86.3966 192.489 86.9204C192.156 87.4346 191.68 87.8297 191.061 88.1059C190.442 88.382 189.694 88.5201 188.818 88.5201H185.705L186.347 87.8631V91.5625H184.919ZM191.604 91.5625L189.061 87.9345H190.59L193.161 91.5625H191.604ZM186.347 88.0059L185.705 87.306H188.776C189.69 87.306 190.38 87.1108 190.847 86.7204C191.323 86.3204 191.561 85.7634 191.561 85.0492C191.561 84.335 191.323 83.7827 190.847 83.3923C190.38 83.0019 189.69 82.8067 188.776 82.8067H185.705L186.347 82.0925V88.0059ZM200.21 91.6768C199.449 91.6768 198.72 91.5625 198.025 91.334C197.33 91.0959 196.782 90.7912 196.382 90.4198L196.911 89.3057C197.292 89.639 197.777 89.9151 198.368 90.1341C198.958 90.3532 199.572 90.4627 200.21 90.4627C200.791 90.4627 201.263 90.396 201.625 90.2627C201.986 90.1294 202.253 89.9485 202.424 89.7199C202.596 89.4819 202.682 89.2152 202.682 88.92C202.682 88.5772 202.567 88.3011 202.339 88.0916C202.12 87.8821 201.829 87.7155 201.467 87.5917C201.115 87.4584 200.725 87.3441 200.296 87.2489C199.868 87.1536 199.434 87.0441 198.996 86.9204C198.568 86.787 198.173 86.6204 197.811 86.4204C197.458 86.2205 197.173 85.9538 196.954 85.6205C196.735 85.2777 196.625 84.8397 196.625 84.3065C196.625 83.7923 196.759 83.3209 197.025 82.8924C197.301 82.4544 197.72 82.1068 198.282 81.8497C198.854 81.5831 199.577 81.4498 200.453 81.4498C201.034 81.4498 201.61 81.5259 202.182 81.6783C202.753 81.8307 203.248 82.0497 203.667 82.3353L203.196 83.478C202.767 83.1923 202.315 82.9876 201.839 82.8638C201.363 82.7305 200.901 82.6639 200.453 82.6639C199.891 82.6639 199.43 82.7353 199.068 82.8781C198.706 83.0209 198.439 83.2114 198.268 83.4495C198.106 83.6875 198.025 83.9541 198.025 84.2493C198.025 84.6017 198.135 84.8826 198.354 85.0921C198.582 85.3016 198.873 85.4682 199.225 85.592C199.587 85.7158 199.982 85.83 200.41 85.9348C200.839 86.03 201.267 86.1395 201.696 86.2633C202.134 86.3871 202.529 86.549 202.881 86.7489C203.243 86.9489 203.534 87.2155 203.753 87.5488C203.972 87.8821 204.081 88.3106 204.081 88.8343C204.081 89.339 203.943 89.8104 203.667 90.2484C203.391 90.6769 202.962 91.0245 202.382 91.2911C201.81 91.5482 201.087 91.6768 200.21 91.6768Z" fill="white"/>
</svg>
